<svg width="53" height="46" viewBox="0 0 53 46" fill="none" xmlns="http://www.w3.org/2000/svg">
<path id="Vector" d="M47.3928 23.1299H39.3571V16.7013C39.3571 13.1556 42.2399 10.2727 45.7856 10.2727H46.5892C47.9252 10.2727 48.9999 9.19796 48.9999 7.86203V3.0406C48.9999 1.70466 47.9252 0.629883 46.5892 0.629883H45.7856C36.9062 0.629883 29.7142 7.82185 29.7142 16.7013V40.8085C29.7142 43.4703 31.8738 45.6299 34.5356 45.6299H47.3928C50.0546 45.6299 52.2142 43.4703 52.2142 40.8085V27.9513C52.2142 25.2895 50.0546 23.1299 47.3928 23.1299ZM18.4642 23.1299H10.4285V16.7013C10.4285 13.1556 13.3113 10.2727 16.8571 10.2727H17.6606C18.9966 10.2727 20.0714 9.19796 20.0714 7.86203V3.0406C20.0714 1.70466 18.9966 0.629883 17.6606 0.629883H16.8571C7.97761 0.629883 0.785645 7.82185 0.785645 16.7013V40.8085C0.785645 43.4703 2.94524 45.6299 5.60707 45.6299H18.4642C21.126 45.6299 23.2856 43.4703 23.2856 40.8085V27.9513C23.2856 25.2895 21.126 23.1299 18.4642 23.1299Z" fill="#F66E49"/>
</svg>
